<svg width="42" height="42" viewBox="0 0 42 42" fill="none" xmlns="http://www.w3.org/2000/svg">
<rect width="42" height="42" rx="10" fill="#EFEFEF"/>
<path fill-rule="evenodd" clip-rule="evenodd" d="M11.9899 13.8735C12.3063 13.3487 14.0502 11.4438 15.2929 11.5013C15.6647 11.5331 15.9933 11.757 16.2604 12.0178H16.2614C16.8735 12.6176 18.6297 14.8809 18.7283 15.3574C18.9717 16.5261 17.5781 17.1998 18.0043 18.3777C19.0909 21.0364 20.9632 22.9086 23.6232 23.994C24.8002 24.4212 25.4739 23.0287 26.6427 23.2711C27.1192 23.3707 29.3839 25.1257 29.9826 25.7388V25.7388C30.2425 26.0048 30.4684 26.3344 30.4992 26.7062C30.5454 28.0155 28.5222 29.7829 28.1278 30.0088C27.1973 30.6753 25.9833 30.663 24.5034 29.975C20.3737 28.2569 13.7739 21.782 12.0238 17.4966C11.3542 16.025 11.309 14.8029 11.9899 13.8735Z" stroke="#436E8E" stroke-width="1.5" stroke-linecap="round" stroke-linejoin="round"/>
<path d="M23.5654 11.75C27.2674 12.161 30.1904 15.081 30.6064 18.782" stroke="#436E8E" stroke-width="1.5" stroke-linecap="round" stroke-linejoin="round"/>
<path d="M23.5654 15.293C25.3354 15.638 26.7184 17.021 27.0634 18.791" stroke="#436E8E" stroke-width="1.5" stroke-linecap="round" stroke-linejoin="round"/>
</svg>
