<svg width="22" height="23" viewBox="0 0 22 23" fill="none" xmlns="http://www.w3.org/2000/svg">
<path fill-rule="evenodd" clip-rule="evenodd" d="M3.2091 13.6382V13.4375C3.23855 12.8436 3.42889 12.2681 3.7605 11.7705C4.31247 11.1727 4.69032 10.4401 4.85441 9.64965C4.85441 9.03871 4.85441 8.41905 4.90778 7.80811C5.18348 4.86688 8.09168 2.83334 10.9643 2.83334H11.0355C13.9081 2.83334 16.8163 4.86688 17.1009 7.80811C17.1543 8.41905 17.1009 9.03871 17.1454 9.64965C17.3117 10.4419 17.6891 11.1768 18.2393 11.7792C18.5734 12.2724 18.764 12.8458 18.7907 13.4375V13.6295C18.8105 14.4274 18.5357 15.2054 18.0169 15.8201C17.3314 16.5389 16.4011 16.986 15.4022 17.0769C12.4731 17.3911 9.51779 17.3911 6.58866 17.0769C5.59089 16.9821 4.66196 16.5356 3.97395 15.8201C3.46318 15.205 3.19206 14.4315 3.2091 13.6382Z" stroke="#110F0F" stroke-width="1.5" stroke-linecap="round" stroke-linejoin="round"/>
<path d="M8.7587 20.1141C9.21637 20.6886 9.88845 21.0604 10.6262 21.1472C11.364 21.234 12.1066 21.0287 12.6897 20.5767C12.869 20.443 13.0304 20.2876 13.1699 20.1141" stroke="#110F0F" stroke-width="1.5" stroke-linecap="round" stroke-linejoin="round"/>
<circle cx="16" cy="4" r="4" fill="#2F80ED"/>
</svg>
