<svg width="24" height="22" viewBox="0 0 24 22" fill="none" xmlns="http://www.w3.org/2000/svg">
<path d="M17.5948 10.0209C19.1972 10.0209 20.497 8.83025 20.497 7.36144C20.497 5.89264 19.1972 4.70197 17.5948 4.70197" stroke="#2F80ED" stroke-width="1.5" stroke-linecap="round" stroke-linejoin="round"/>
<path d="M18.9291 12.911C19.4076 12.9413 19.8833 13.0034 20.3517 13.1001C21.0026 13.2169 21.7854 13.4614 22.0641 13.9966C22.2419 14.3395 22.2419 14.7386 22.0641 15.0823C21.7863 15.6175 21.0026 15.8612 20.3517 15.9839" stroke="#2F80ED" stroke-width="1.5" stroke-linecap="round" stroke-linejoin="round"/>
<path d="M6.28998 10.0209C4.68765 10.0209 3.38782 8.83025 3.38782 7.36144C3.38782 5.89264 4.68765 4.70197 6.28998 4.70197" stroke="#2F80ED" stroke-width="1.5" stroke-linecap="round" stroke-linejoin="round"/>
<path d="M4.95577 12.911C4.47727 12.9413 4.00152 13.0034 3.5331 13.1001C2.88227 13.2169 2.09943 13.4614 1.82168 13.9966C1.64293 14.3395 1.64293 14.7386 1.82168 15.0823C2.09852 15.6175 2.88227 15.8612 3.5331 15.9839" stroke="#2F80ED" stroke-width="1.5" stroke-linecap="round" stroke-linejoin="round"/>
<path fill-rule="evenodd" clip-rule="evenodd" d="M11.9377 13.4838C15.1846 13.4838 17.9584 13.9342 17.9584 15.7366C17.9584 17.5381 15.2029 18.0053 11.9377 18.0053C8.68997 18.0053 5.91705 17.5549 5.91705 15.7525C5.91705 13.9501 8.67255 13.4838 11.9377 13.4838Z" stroke="#2F80ED" stroke-width="1.5" stroke-linecap="round" stroke-linejoin="round"/>
<path fill-rule="evenodd" clip-rule="evenodd" d="M11.9377 10.9129C9.79638 10.9129 8.07947 9.33902 8.07947 7.37529C8.07947 5.4124 9.79638 3.83856 11.9377 3.83856C14.0791 3.83856 15.796 5.4124 15.796 7.37529C15.796 9.33902 14.0791 10.9129 11.9377 10.9129Z" stroke="#2F80ED" stroke-width="1.5" stroke-linecap="round" stroke-linejoin="round"/>
</svg>
