<svg width="14" height="14" viewBox="0 0 14 14" fill="none" xmlns="http://www.w3.org/2000/svg">
<g clip-path="url(#clip0_11_280)">
<path d="M6.31192 1.1493C6.57303 0.547138 7.42698 0.547139 7.6881 1.1493L8.7862 3.68162C9.00355 4.18285 9.47623 4.52627 10.0201 4.5781L12.7678 4.83993C13.4212 4.90219 13.6851 5.71434 13.1931 6.14875L11.124 7.97564C10.7145 8.33724 10.5339 8.89291 10.6527 9.42617L11.2528 12.1203C11.3955 12.761 10.7046 13.2629 10.1394 12.9292L7.76259 11.526C7.29214 11.2482 6.70788 11.2482 6.23742 11.526L3.86057 12.9292C3.29538 13.2629 2.60453 12.761 2.74722 12.1203L3.3473 9.42617C3.46607 8.89291 3.28552 8.33724 2.87599 7.97564L0.806939 6.14875C0.314941 5.71434 0.578827 4.90219 1.2322 4.83993L3.97992 4.5781C4.52378 4.52627 4.99646 4.18285 5.21381 3.68162L6.31192 1.1493Z" fill="#FFB800"/>
</g>
<defs>
<clipPath id="clip0_11_280">
<rect width="14" height="14" fill="white"/>
</clipPath>
</defs>
</svg>
