<svg width="14" height="14" viewBox="0 0 14 14" fill="none" xmlns="http://www.w3.org/2000/svg">
<path fill-rule="evenodd" clip-rule="evenodd" d="M7 14C3.136 14 0 10.871 0 7C0 3.136 3.136 0 7 0C10.871 0 14 3.136 14 7C14 10.871 10.871 14 7 14ZM9.23301 9.59699C9.31701 9.64599 9.40801 9.67399 9.50601 9.67399C9.68101 9.67399 9.85601 9.58299 9.95401 9.41499C10.101 9.16999 10.024 8.84799 9.77201 8.69399L7.28001 7.20999V3.97599C7.28001 3.68199 7.04201 3.45099 6.75501 3.45099C6.46801 3.45099 6.23001 3.68199 6.23001 3.97599V7.51099C6.23001 7.69299 6.32801 7.86099 6.48901 7.95899L9.23301 9.59699Z" fill="#436E8E"/>
</svg>
